<?xml version="1.0" encoding="utf-8"?>
<!-- Generator: Adobe Illustrator 27.8.0, SVG Export Plug-In . SVG Version: 6.00 Build 0)  -->
<svg version="1.1" id="Layer_2_00000064341273140310886530000018205331052879732353_"
	 xmlns="http://www.w3.org/2000/svg" xmlns:xlink="http://www.w3.org/1999/xlink" x="0px" y="0px" viewBox="0 0 496.8 633.4"
	 style="enable-background:new 0 0 496.8 633.4;" xml:space="preserve">
<style type="text/css">
	.st0{stroke:#000000;stroke-miterlimit:10;}
</style>
<g id="Layer_1-2">
	<g>
		<rect class="st0" width="71.1" height="71.1"/>
		<rect x="141.4" class="st0" width="71.1" height="71.1"/>
		<rect x="212.5" class="st0" width="71.1" height="71.1"/>
		<rect x="283.6" class="st0" width="71.1" height="71.1"/>
		<rect y="70.4" class="st0" width="71.1" height="71.1"/>
		<rect x="71.1" y="70.4" class="st0" width="70.4" height="71.1"/>
		<rect x="283.6" y="70.4" class="st0" width="71.1" height="71.1"/>
		<rect y="140.8" class="st0" width="71.1" height="71.1"/>
		<rect x="283.6" y="140.8" class="st0" width="71.1" height="71.1"/>
		<rect y="211.1" class="st0" width="71.1" height="71.1"/>
		<rect x="141.4" y="211.1" class="st0" width="71.1" height="71.1"/>
		<rect x="212.5" y="211.1" class="st0" width="71.1" height="71.1"/>
		<rect y="281.5" class="st0" width="71.1" height="71.1"/>
		<rect x="71.1" y="281.5" class="st0" width="70.4" height="71.1"/>
		<rect x="141.4" y="281.5" class="st0" width="71.1" height="71.1"/>
		<rect x="212.5" y="281.5" class="st0" width="71.1" height="71.1"/>
		<rect x="283.6" y="281.5" class="st0" width="71.1" height="71.1"/>
		<rect y="351.9" class="st0" width="71.1" height="70.4"/>
		<rect x="354.7" y="351.9" class="st0" width="71.1" height="70.4"/>
		<rect y="421.6" class="st0" width="71.1" height="71.1"/>
		<rect x="354.7" y="421.6" class="st0" width="71.1" height="71.1"/>
		<rect x="425.7" y="421.6" class="st0" width="71.1" height="71.1"/>
		<rect y="492" class="st0" width="71.1" height="71.1"/>
		<rect x="425.7" y="492" class="st0" width="71.1" height="71.1"/>
		<rect y="562.3" class="st0" width="71.1" height="71.1"/>
		<rect x="425.7" y="562.3" class="st0" width="71.1" height="71.1"/>
	</g>
</g>
</svg>
