<?xml version="1.0" encoding="utf-8"?>
<!-- Generator: Adobe Illustrator 27.8.0, SVG Export Plug-In . SVG Version: 6.00 Build 0)  -->
<svg version="1.1" id="Layer_2_00000080172283847878135540000011873473475450427019_"
	 xmlns="http://www.w3.org/2000/svg" xmlns:xlink="http://www.w3.org/1999/xlink" x="0px" y="0px" viewBox="0 0 425.7 632.7"
	 style="enable-background:new 0 0 425.7 632.7;" xml:space="preserve">
<style type="text/css">
	.st0{stroke:#000000;stroke-miterlimit:10;}
</style>
<g id="Layer_1-2">
	<g>
		<rect class="st0" width="71.1" height="71.1"/>
		<rect x="71.1" class="st0" width="70.4" height="71.1"/>
		<rect x="141.4" class="st0" width="71.1" height="71.1"/>
		<rect x="212.5" class="st0" width="71.1" height="71.1"/>
		<rect x="283.6" class="st0" width="71.1" height="71.1"/>
		<rect y="70.4" class="st0" width="71.1" height="70.4"/>
		<rect x="71.1" y="70.4" class="st0" width="70.4" height="70.4"/>
		<rect x="354.7" y="70.4" class="st0" width="71.1" height="70.4"/>
		<rect y="140.1" class="st0" width="71.1" height="71.1"/>
		<rect x="354.7" y="140.1" class="st0" width="71.1" height="71.1"/>
		<rect y="210.4" class="st0" width="71.1" height="71.1"/>
		<rect x="71.1" y="210.4" class="st0" width="70.4" height="71.1"/>
		<rect x="141.4" y="210.4" class="st0" width="71.1" height="71.1"/>
		<rect x="212.5" y="210.4" class="st0" width="71.1" height="71.1"/>
		<rect x="283.6" y="210.4" class="st0" width="71.1" height="71.1"/>
		<rect x="354.7" y="210.4" class="st0" width="71.1" height="71.1"/>
		<rect y="280.8" class="st0" width="71.1" height="71.1"/>
		<rect x="71.1" y="280.8" class="st0" width="70.4" height="71.1"/>
		<rect x="141.4" y="280.8" class="st0" width="71.1" height="71.1"/>
		<rect x="212.5" y="280.8" class="st0" width="71.1" height="71.1"/>
		<rect y="351.2" class="st0" width="71.1" height="71.1"/>
		<rect x="71.1" y="351.2" class="st0" width="70.4" height="71.1"/>
		<rect x="212.5" y="351.2" class="st0" width="71.1" height="71.1"/>
		<rect x="283.6" y="351.2" class="st0" width="71.1" height="71.1"/>
		<rect y="421.6" class="st0" width="71.1" height="71.1"/>
		<rect x="71.1" y="421.6" class="st0" width="70.4" height="71.1"/>
		<rect x="283.6" y="421.6" class="st0" width="71.1" height="71.1"/>
		<rect y="492" class="st0" width="71.1" height="70.4"/>
		<rect x="71.1" y="492" class="st0" width="70.4" height="70.4"/>
		<rect x="283.6" y="492" class="st0" width="71.1" height="70.4"/>
		<rect x="354.7" y="492" class="st0" width="71.1" height="70.4"/>
		<rect y="561.7" class="st0" width="71.1" height="71.1"/>
		<rect x="71.1" y="561.7" class="st0" width="70.4" height="71.1"/>
		<rect x="354.7" y="561.7" class="st0" width="71.1" height="71.1"/>
	</g>
</g>
</svg>
