<?xml version="1.0" standalone="no"?>
<!DOCTYPE svg PUBLIC "-//W3C//DTD SVG 20010904//EN"
 "http://www.w3.org/TR/2001/REC-SVG-20010904/DTD/svg10.dtd">
<svg version="1.0" xmlns="http://www.w3.org/2000/svg"
 width="700.000000pt" height="700.000000pt" viewBox="0 0 700.000000 700.000000"
 preserveAspectRatio="xMidYMid meet">
<metadata>
Created by potrace 1.14, written by Peter Selinger 2001-2017
</metadata>
<g transform="translate(0.000000,700.000000) scale(0.100000,-0.100000)"
fill="#000000" stroke="none">
<path d="M1700 3500 l0 -2290 270 0 270 0 0 1010 0 1010 1005 0 1005 0 0 -505
0 -505 255 0 255 0 0 -505 0 -505 270 0 270 0 0 775 0 775 -255 0 -255 0 0
250 0 250 -255 0 -255 0 -2 253 -3 252 -252 3 -253 2 0 235 0 235 255 0 255 0
0 775 0 775 -780 0 -780 0 0 -255 0 -255 -240 0 -240 0 0 255 0 255 -270 0
-270 0 0 -2290z m2040 1260 l0 -490 -510 0 -510 0 0 -250 0 -250 -240 0 -240
0 0 490 0 490 250 0 250 0 0 250 0 250 500 0 500 0 0 -490z"/>
</g>
</svg>
