<?xml version="1.0" encoding="UTF-8"?>
<svg id="Layer_2" data-name="Layer 2" xmlns="http://www.w3.org/2000/svg" viewBox="0 0 277.08 277.08">
  <g id="Layer_2-2" data-name="Layer 2">
    <g>
      <circle cx="138.54" cy="138.54" r="138.54" style="fill: #fff; stroke-width: 0px;"/>
      <g id="Layer_1-2" data-name="Layer 1-2">
        <g>
          <rect x="67.84" y="48.4" width="20.24" height="20.24" style="stroke: #000; stroke-miterlimit: 10;"/>
          <rect x="108.09" y="48.4" width="20.24" height="20.24" style="stroke: #000; stroke-miterlimit: 10;"/>
          <rect x="128.32" y="48.4" width="20.24" height="20.24" style="stroke: #000; stroke-miterlimit: 10;"/>
          <rect x="148.56" y="48.4" width="20.24" height="20.24" style="stroke: #000; stroke-miterlimit: 10;"/>
          <rect x="67.84" y="68.44" width="20.24" height="20.24" style="stroke: #000; stroke-miterlimit: 10;"/>
          <rect x="88.08" y="68.44" width="20.04" height="20.24" style="stroke: #000; stroke-miterlimit: 10;"/>
          <rect x="148.56" y="68.44" width="20.24" height="20.24" style="stroke: #000; stroke-miterlimit: 10;"/>
          <rect x="67.84" y="88.47" width="20.24" height="20.24" style="stroke: #000; stroke-miterlimit: 10;"/>
          <rect x="148.56" y="88.47" width="20.24" height="20.24" style="stroke: #000; stroke-miterlimit: 10;"/>
          <rect x="67.84" y="108.48" width="20.24" height="20.24" style="stroke: #000; stroke-miterlimit: 10;"/>
          <rect x="108.09" y="108.48" width="20.24" height="20.24" style="stroke: #000; stroke-miterlimit: 10;"/>
          <rect x="128.32" y="108.48" width="20.24" height="20.24" style="stroke: #000; stroke-miterlimit: 10;"/>
          <rect x="67.84" y="128.52" width="20.24" height="20.24" style="stroke: #000; stroke-miterlimit: 10;"/>
          <rect x="88.08" y="128.52" width="20.04" height="20.24" style="stroke: #000; stroke-miterlimit: 10;"/>
          <rect x="108.09" y="128.52" width="20.24" height="20.24" style="stroke: #000; stroke-miterlimit: 10;"/>
          <rect x="128.32" y="128.52" width="20.24" height="20.24" style="stroke: #000; stroke-miterlimit: 10;"/>
          <rect x="148.56" y="128.52" width="20.24" height="20.24" style="stroke: #000; stroke-miterlimit: 10;"/>
          <rect x="67.84" y="148.56" width="20.24" height="20.04" style="stroke: #000; stroke-miterlimit: 10;"/>
          <rect x="168.79" y="148.56" width="20.24" height="20.04" style="stroke: #000; stroke-miterlimit: 10;"/>
          <rect x="67.84" y="168.4" width="20.24" height="20.24" style="stroke: #000; stroke-miterlimit: 10;"/>
          <rect x="168.79" y="168.4" width="20.24" height="20.24" style="stroke: #000; stroke-miterlimit: 10;"/>
          <rect x="189" y="168.4" width="20.24" height="20.24" style="stroke: #000; stroke-miterlimit: 10;"/>
          <rect x="67.84" y="188.43" width="20.24" height="20.24" style="stroke: #000; stroke-miterlimit: 10;"/>
          <rect x="189" y="188.43" width="20.24" height="20.24" style="stroke: #000; stroke-miterlimit: 10;"/>
          <rect x="67.84" y="208.44" width="20.24" height="20.24" style="stroke: #000; stroke-miterlimit: 10;"/>
          <rect x="189" y="208.44" width="20.24" height="20.24" style="stroke: #000; stroke-miterlimit: 10;"/>
        </g>
      </g>
    </g>
  </g>
</svg>