<?xml version="1.0" encoding="UTF-8"?>
<svg id="Layer_2" data-name="Layer 2" xmlns="http://www.w3.org/2000/svg" viewBox="0 0 283.5 492">
  <g id="Layer_1-2" data-name="Layer 1">
    <rect width="71.25" height="71.25" style="stroke-width: 0px;"/>
    <rect x="71.25" width="70.5" height="71.25" style="stroke-width: 0px;"/>
    <rect x="141.75" width="71.25" height="71.25" style="stroke-width: 0px;"/>
    <rect x="213" width="70.5" height="71.25" style="stroke-width: 0px;"/>
    <rect y="70.5" width="71.25" height="70.5" style="stroke-width: 0px;"/>
    <rect x="213" y="70.5" width="70.5" height="70.5" style="stroke-width: 0px;"/>
    <rect y="140.25" width="71.25" height="71.25" style="stroke-width: 0px;"/>
    <rect x="141.75" y="140.25" width="71.25" height="71.25" style="stroke-width: 0px;"/>
    <rect x="213" y="140.25" width="70.5" height="71.25" style="stroke-width: 0px;"/>
    <rect y="210.75" width="71.25" height="70.5" style="stroke-width: 0px;"/>
    <rect x="71.25" y="210.75" width="70.5" height="70.5" style="stroke-width: 0px;"/>
    <rect x="141.75" y="210.75" width="71.25" height="70.5" style="stroke-width: 0px;"/>
    <rect y="280.5" width="71.25" height="71.25" style="stroke-width: 0px;"/>
    <rect x="141.75" y="280.5" width="71.25" height="71.25" style="stroke-width: 0px;"/>
    <rect y="351" width="71.25" height="71.25" style="stroke-width: 0px;"/>
    <rect x="141.75" y="351" width="71.25" height="71.25" style="stroke-width: 0px;"/>
    <rect x="213" y="351" width="70.5" height="71.25" style="stroke-width: 0px;"/>
    <rect y="421.5" width="71.25" height="70.5" style="stroke-width: 0px;"/>
    <rect x="213" y="421.5" width="70.5" height="70.5" style="stroke-width: 0px;"/>
  </g>
</svg>