<?xml version="1.0" encoding="UTF-8"?>
<svg id="Layer_2" data-name="Layer 2" xmlns="http://www.w3.org/2000/svg" viewBox="0 0 496.8 633.42">
  <g id="Layer_1-2" data-name="Layer 1">
    <g>
      <rect width="71.07" height="71.07" style="stroke-width: 0px;"/>
      <rect x="141.45" width="71.07" height="71.07" style="stroke-width: 0px;"/>
      <rect x="212.52" width="71.07" height="71.07" style="stroke-width: 0px;"/>
      <rect x="283.59" width="71.07" height="71.07" style="stroke-width: 0px;"/>
      <rect y="70.38" width="71.07" height="71.07" style="stroke-width: 0px;"/>
      <rect x="71.07" y="70.38" width="70.38" height="71.07" style="stroke-width: 0px;"/>
      <rect x="283.59" y="70.38" width="71.07" height="71.07" style="stroke-width: 0px;"/>
      <rect y="140.76" width="71.07" height="71.07" style="stroke-width: 0px;"/>
      <rect x="283.59" y="140.76" width="71.07" height="71.07" style="stroke-width: 0px;"/>
      <rect y="211.14" width="71.07" height="71.07" style="stroke-width: 0px;"/>
      <rect x="141.45" y="211.14" width="71.07" height="71.07" style="stroke-width: 0px;"/>
      <rect x="212.52" y="211.14" width="71.07" height="71.07" style="stroke-width: 0px;"/>
      <rect y="281.52" width="71.07" height="71.07" style="stroke-width: 0px;"/>
      <rect x="71.07" y="281.52" width="70.38" height="71.07" style="stroke-width: 0px;"/>
      <rect x="141.45" y="281.52" width="71.07" height="71.07" style="stroke-width: 0px;"/>
      <rect x="212.52" y="281.52" width="71.07" height="71.07" style="stroke-width: 0px;"/>
      <rect x="283.59" y="281.52" width="71.07" height="71.07" style="stroke-width: 0px;"/>
      <rect y="351.9" width="71.07" height="70.38" style="stroke-width: 0px;"/>
      <rect x="354.66" y="351.9" width="71.07" height="70.38" style="stroke-width: 0px;"/>
      <rect y="421.59" width="71.07" height="71.07" style="stroke-width: 0px;"/>
      <rect x="354.66" y="421.59" width="71.07" height="71.07" style="stroke-width: 0px;"/>
      <rect x="425.73" y="421.59" width="71.07" height="71.07" style="stroke-width: 0px;"/>
      <rect y="491.97" width="71.07" height="71.07" style="stroke-width: 0px;"/>
      <rect x="425.73" y="491.97" width="71.07" height="71.07" style="stroke-width: 0px;"/>
      <rect y="562.35" width="71.07" height="71.07" style="stroke-width: 0px;"/>
      <rect x="425.73" y="562.35" width="71.07" height="71.07" style="stroke-width: 0px;"/>
    </g>
  </g>
</svg>