<?xml version="1.0" encoding="UTF-8"?>
<svg id="Layer_2" data-name="Layer 2" xmlns="http://www.w3.org/2000/svg" viewBox="0 0 496.8 562.35">
  <g id="Layer_1-2" data-name="Layer 1">
    <g>
      <rect width="71.07" height="70.38" style="stroke-width: 0px;"/>
      <rect x="71.07" width="71.07" height="70.38" style="stroke-width: 0px;"/>
      <rect x="142.14" width="70.38" height="70.38" style="stroke-width: 0px;"/>
      <rect x="212.52" width="71.07" height="70.38" style="stroke-width: 0px;"/>
      <rect x="283.59" width="71.07" height="70.38" style="stroke-width: 0px;"/>
      <rect y="69.69" width="71.07" height="71.07" style="stroke-width: 0px;"/>
      <rect x="71.07" y="69.69" width="71.07" height="71.07" style="stroke-width: 0px;"/>
      <rect x="283.59" y="69.69" width="71.07" height="71.07" style="stroke-width: 0px;"/>
      <rect x="354.66" y="69.69" width="71.07" height="71.07" style="stroke-width: 0px;"/>
      <rect y="140.07" width="71.07" height="71.07" style="stroke-width: 0px;"/>
      <rect x="71.07" y="140.07" width="71.07" height="71.07" style="stroke-width: 0px;"/>
      <rect x="354.66" y="140.07" width="71.07" height="71.07" style="stroke-width: 0px;"/>
      <rect y="210.45" width="71.07" height="71.07" style="stroke-width: 0px;"/>
      <rect x="71.07" y="210.45" width="71.07" height="71.07" style="stroke-width: 0px;"/>
      <rect x="142.14" y="210.45" width="70.38" height="71.07" style="stroke-width: 0px;"/>
      <rect x="212.52" y="210.45" width="71.07" height="71.07" style="stroke-width: 0px;"/>
      <rect x="283.59" y="210.45" width="71.07" height="71.07" style="stroke-width: 0px;"/>
      <rect x="354.66" y="210.45" width="71.07" height="71.07" style="stroke-width: 0px;"/>
      <rect y="280.83" width="71.07" height="71.07" style="stroke-width: 0px;"/>
      <rect x="71.07" y="280.83" width="71.07" height="71.07" style="stroke-width: 0px;"/>
      <rect x="283.59" y="280.83" width="71.07" height="71.07" style="stroke-width: 0px;"/>
      <rect x="354.66" y="280.83" width="71.07" height="71.07" style="stroke-width: 0px;"/>
      <rect x="425.73" y="280.83" width="71.07" height="71.07" style="stroke-width: 0px;"/>
      <rect y="351.21" width="71.07" height="71.07" style="stroke-width: 0px;"/>
      <rect x="71.07" y="351.21" width="71.07" height="71.07" style="stroke-width: 0px;"/>
      <rect x="354.66" y="351.21" width="71.07" height="71.07" style="stroke-width: 0px;"/>
      <rect x="425.73" y="351.21" width="71.07" height="71.07" style="stroke-width: 0px;"/>
      <rect y="421.59" width="71.07" height="70.38" style="stroke-width: 0px;"/>
      <rect x="71.07" y="421.59" width="71.07" height="70.38" style="stroke-width: 0px;"/>
      <rect x="354.66" y="421.59" width="71.07" height="70.38" style="stroke-width: 0px;"/>
      <rect x="425.73" y="421.59" width="71.07" height="70.38" style="stroke-width: 0px;"/>
      <rect y="491.28" width="71.07" height="71.07" style="stroke-width: 0px;"/>
      <rect x="71.07" y="491.28" width="71.07" height="71.07" style="stroke-width: 0px;"/>
      <rect x="354.66" y="491.28" width="71.07" height="71.07" style="stroke-width: 0px;"/>
      <rect x="425.73" y="491.28" width="71.07" height="71.07" style="stroke-width: 0px;"/>
    </g>
  </g>
</svg>